<?xml version="1.0" encoding="utf-8"?>
<!-- Generator: Adobe Illustrator 20.1.0, SVG Export Plug-In . SVG Version: 6.00 Build 0)  -->
<svg version="1.1" id="Layer_1" xmlns="http://www.w3.org/2000/svg" xmlns:xlink="http://www.w3.org/1999/xlink" x="0px" y="0px"
	 viewBox="0 0 100 100" style="enable-background:new 0 0 100 100;" xml:space="preserve">
<style type="text/css">
	.st0{fill:#FFFFFF;}
	.st1{fill:#FF3366;}
</style>
<g>
	<path class="st0" d="M50.6,72.5v12.4c0,0.6-0.4,1-1,1s-1-0.4-1-1V72.5c0-0.6,0.4-1,1-1S50.6,71.9,50.6,72.5z M61.1,70.8
		c-0.5-0.1-1,0.3-1.1,0.9l-1.6,12.4c-0.1,0.5,0.3,1,0.9,1.1c0,0,0.1,0,0.1,0c0.5,0,0.9-0.4,1-0.9L62,72C62,71.4,61.7,70.9,61.1,70.8
		z M38,70.8c-0.5,0.1-0.9,0.6-0.9,1.1l1.6,12.4c0.1,0.5,0.5,0.9,1,0.9c0,0,0.1,0,0.1,0c0.5-0.1,0.9-0.6,0.9-1.1l-1.6-12.4
		C39.1,71.2,38.6,70.8,38,70.8z M74.8,64.4l-5.5,22.2c0,0.4-0.2,0.7-0.5,1c-0.2,0.1-5.5,3.5-19.2,3.5c-13.7,0-19-3.4-19.2-3.5
		c-0.2-0.2-0.4-0.4-0.5-0.7l-5.6-22.4c-4-3.7-5.6-9-5.4-12.7c0.2-2.9,1.8-6.5,4.6-9.3c-0.3-0.6-0.5-1.3-0.5-2c0-1.7,1.1-3.2,2.6-3.8
		c-0.1-0.4-0.1-0.6-0.1-0.6c-0.2-1.8-0.1-3.8,0.4-5.6c0.8-2.8,2.3-5.3,4.3-6.9c0.1-0.1,0.3-0.2,0.4-0.3c-0.2-0.5-0.3-1-0.3-1.6
		c0-2.3,1.9-4.1,4.1-4.1c1.6,0,3,0.9,3.7,2.3c0.2-0.1,0.4-0.1,0.5-0.2c1.5-0.5,3-1,4.4-1.6c0.6-1.5,2.1-2.6,3.8-2.6c0,0,0.1,0,0.1,0
		c0.4-0.4,0.8-0.8,1.1-1.3c0.7-1,1.1-2.6,1-3.8c0-0.4,0.1-0.8,0.5-1.1s0.8-0.3,1.2-0.1c3.1,1.4,7.6,3.6,10.9,7
		c2.1,2.1,3.3,5.2,3.6,8.5c2.2,0.1,3.9,1.9,3.9,4.1c0,0.6-0.2,1.2-0.4,1.8c5.2,3,10.2,7.4,11.5,12.2C82.1,48.5,80.3,58.5,74.8,64.4z
		 M37.4,66L37.4,66L37.4,66 M61.3,30.2c0.5-0.3,0.9-0.7,1.4-1c0,0,0,0,0,0c0,0,0-0.1,0-0.1c0.3-1.2,0.4-2.5,0.3-3.9 M63,25.1
		c-0.1-1.4-0.4-2.8-0.9-4.1C61,22,59.8,23.1,58.5,24c-0.1,0.1-0.3,0.1-0.5,0.1c-0.2,0-0.5-0.1-0.7-0.3c-0.3-0.4-0.2-0.9,0.2-1.1
		c1.4-1,2.7-2.1,3.8-3.3c-0.4-0.6-0.8-1.2-1.3-1.7c-2.5-2.6-5.8-4.4-8.5-5.7c-0.2,1.3-0.7,2.5-1.4,3.5c-0.2,0.3-0.4,0.6-0.7,0.9
		c1,0.8,1.6,1.9,1.6,3.2c0,2.3-1.9,4.1-4.2,4.1c-1.9,0-3.5-1.3-4-3c-1.2,0.4-2.3,0.8-3.5,1.2c-2.8,0.9-5.5,1.8-7.7,3.5
		c-1.6,1.3-2.9,3.4-3.5,5.7c-0.1,0.4-0.2,0.9-0.3,1.3c1.3-0.1,3.5-0.4,6.2-0.9c0.4-0.1,0.8,0.2,0.9,0.6c0.1,0.4-0.2,0.9-0.6,0.9
		c-3,0.5-5.3,0.8-6.6,0.9c0,0.6,0,1.2,0.1,1.7c0,0.1,0.1,0.4,0.2,0.7c1.6,0.3,2.9,1.6,3.2,3.2c3.8-0.2,10.7-0.8,17.9-3.3
		c0-0.2-0.1-0.4-0.1-0.5c0-2.3,1.9-4.1,4.2-4.1c1.3,0,2.5,0.6,3.2,1.6c1.6-0.9,3.3-1.9,4.8-3 M21.4,51.9c-0.1,1.1,0.1,2.4,0.5,3.8
		c1.5-0.2,2.8,0.5,4,1.2c1.2,0.7,2.3,1.3,3.4,1c0.7-0.2,1.4-0.6,2.1-1c1.6-0.9,3.6-2.1,5.7-0.5c0.8,0.6,1.4,1.5,1.8,2.3
		c0.8,1.3,1.3,2.1,2.6,2.1c1.6,0,2.3-0.9,3.1-2.8c0.9-2,2.2-4.3,4.7-5.5c3.1-1.5,6.2-0.9,9.2,1.8l0.5,0.4c2.2,2,4,3.3,5.9,2.2
		c1.6-0.9,2-2.7,2.5-4.5c0.2-0.7,0.4-1.4,0.6-2.1c0.4-1,1.3-2.3,2.6-2.8c0.8-0.3,1.7-0.2,2.4,0.3c0.6,0.4,1,1,1.3,1.5
		c0.6,1,0.9,1.2,1.5,1.1c1.4-0.3,2.2-2.7,2.6-4.4c-0.1-1-0.2-2-0.5-2.8c-1.3-4.6-7.4-9.9-14.5-12.8c-2,1.6-4.2,3-6.4,4.2
		c0.1,0.4,0.2,0.8,0.2,1.2c0,2.3-1.9,4.1-4.1,4.1c-1.5,0-2.8-0.8-3.6-2.1c-7.5,2.5-14.5,3.2-18.5,3.4c-0.4,1.9-2.1,3.4-4.1,3.4
		c-0.7,0-1.3-0.2-1.9-0.5C22.9,46.5,21.5,49.6,21.4,51.9z M71.7,67.1c-0.9,0.5-1.9,1-3.2,1.3c-2.9,0.7-5.2,0-6.6-0.8
		c-1,0.9-3,2.2-6,2.4c-2.9,0.2-5.1-0.8-6.3-1.7c-1.1,0.8-3.1,1.7-5.6,1.7c-0.2,0-0.4,0-0.7,0c-2.8-0.2-4.9-1.4-6-2.4
		c-1.3,0.8-3.7,1.6-6.6,0.8c-1.3-0.3-2.3-0.8-3.2-1.3l4.6,18.7c1.4,0.7,6.6,2.9,17.5,2.9c10.8,0,16-2.2,17.4-2.9L71.7,67.1z
		 M41.2,31.5c0.1,0,0.1,0,0.2,0c4.3-1.1,8.2-2.6,11.5-4.2c0.4-0.2,0.6-0.7,0.4-1.1s-0.7-0.6-1.1-0.4c-3.2,1.6-7,3-11.2,4.1
		c-0.4,0.1-0.7,0.6-0.6,1C40.5,31.3,40.9,31.5,41.2,31.5z M38.9,51.9c2.3,0,4.2-1.9,4.2-4.1s-1.9-4.2-4.2-4.2s-4.1,1.9-4.1,4.2
		C34.8,50.1,36.7,51.9,38.9,51.9z M66.1,43.7c2.3,0,4.2-1.9,4.2-4.1s-1.9-4.1-4.2-4.1s-4.2,1.9-4.2,4.1
		C61.9,41.9,63.8,43.7,66.1,43.7z"/>
</g>
<g>
	<circle class="st1" cx="66.1" cy="39.6" r="4.2"/>
	<path class="st1" d="M61.3,30.2c0.6,1.5,2.1,2.6,3.9,2.6c2.3,0,4.2-1.9,4.2-4.2s-1.9-4.2-4.2-4.2c-0.8,0-1.6,0.2-2.2,0.6"/>
	<path class="st1" d="M61.3,30.2c-0.2-0.5-0.3-1-0.3-1.6c0-1.5,0.8-2.8,2-3.6"/>
	<circle class="st1" cx="38.9" cy="47.8" r="4.2"/>
	<circle class="st1" cx="53.3" cy="35.8" r="4.2"/>
	<circle class="st1" cx="27.2" cy="40.5" r="4.2"/>
	<circle class="st1" cx="34.5" cy="21.6" r="4.2"/>
	<circle class="st1" cx="46.9" cy="19.6" r="4.2"/>
</g>
</svg>
